<?xml version="1.0" encoding="utf-8"?>
<!-- Generator: Adobe Illustrator 22.0.1, SVG Export Plug-In . SVG Version: 6.00 Build 0)  -->
<svg version="1.1" id="Layer_3" xmlns="http://www.w3.org/2000/svg"
	xmlns:xlink="http://www.w3.org/1999/xlink" x="0px" y="0px"
	viewBox="0 0 512 512" style="enable-background:new 0 0 512 512;" xml:space="preserve">
<style type="text/css">
	.st0{fill:#737373;}
</style>
<g>
	<path class="st0" d="M426.2,431.2l-24.6-235.6c-3.4-30.7-29.1-53.9-59.8-53.9h-0.7V99.6c0-47-38.3-85.1-85.1-85.1
		s-85.1,38.3-85.1,85.1v42.2h-0.7c-30.8,0-56.4,23.1-59.5,53.9L85.8,431.2c-1.7,17.4,3.5,33.3,15.1,46.3c11.7,13.1,27.2,20,44.6,20
		h220.8c17.6,0,33.1-6.8,44.6-20C422.9,464.3,428.2,448.3,426.2,431.2z M187.7,99.6c0-37.6,30.6-68.1,68.1-68.1S324,62.1,324,99.6
		v42.2H187.7V99.6z M398.4,466.2c-8.5,9.4-19.2,14.3-32,14.3H145.6c-12.8,0-23.5-4.8-32-14.3c-8.5-9.4-12.2-20.7-10.9-33.2
		l24.8-235.6c2.2-22.1,20.5-38.6,42.6-38.6h0.7v49.6c0,4.7,3.8,8.5,8.5,8.5c4.7,0,8.5-3.8,8.5-8.5v-49.6h136.3v49.6
		c0,4.7,3.8,8.5,8.5,8.5c4.7,0,8.5-3.8,8.5-8.5v-49.6h0.7c22.1,0,40.5,16.7,42.9,38.6L409.3,433C410.7,445.4,407,456.5,398.4,466.2
		L398.4,466.2z"/>
	<path class="st0" d="M256,234.9c-46.6,0-84.7,38.1-84.7,84.9c0,46.6,38,84.7,84.7,84.7c46.9,0,84.9-38,84.9-84.7
		C340.9,272.9,302.8,234.9,256,234.9L256,234.9z M256,387.4c-37.3,0-67.7-30.3-67.7-67.7c0-37.4,30.3-67.9,67.7-67.9
		c37.4,0,67.9,30.5,67.9,67.9C323.9,357.1,293.4,387.4,256,387.4L256,387.4z"/>
	<path class="st0" d="M287,292.3l-37,36.7l-18.9-18.7c-3.3-3.3-8.7-3.3-12,0.1c-3.3,3.3-3.3,8.7,0.1,12l24.8,24.6
		c1.7,1.7,3.8,2.5,6,2.5c2.1,0,4.4-0.8,6-2.5l42.9-42.6c3.3-3.3,3.3-8.7,0-12C295.8,288.9,290.5,288.9,287,292.3L287,292.3z"/>
</g>
</svg>