<svg height="512" viewBox="0 0 512 512" width="512" xmlns="http://www.w3.org/2000/svg"><g><path class="st0" d="m364 8h-216a28.031 28.031 0 0 0 -28 28v440a28.031 28.031 0 0 0 28 28h216a28.031 28.031 0 0 0 28-28v-440a28.031 28.031 0 0 0 -28-28zm-78.27 16-4 16h-51.51l-4-16zm90.27 452a12.01 12.01 0 0 1 -12 12h-216a12.01 12.01 0 0 1 -12-12v-440a12.01 12.01 0 0 1 12-12h61.72l6.49 25.95a8 8 0 0 0 7.77 6.05h64a8 8 0 0 0 7.76-6.06l6.48-25.94h61.78a12.01 12.01 0 0 1 12 12z"></path><path class="st0" d="m280 464h-48a8 8 0 0 0 0 16h48a8 8 0 0 0 0-16z"></path></g></svg>