<?xml version="1.0" encoding="utf-8"?>
<!-- Generator: Adobe Illustrator 22.0.1, SVG Export Plug-In . SVG Version: 6.00 Build 0)  -->
<svg version="1.1" id="Capa_1" xmlns="http://www.w3.org/2000/svg" xmlns:xlink="http://www.w3.org/1999/xlink" x="0px" y="0px"
	 viewBox="0 0 512 512" style="enable-background:new 0 0 512 512;" xml:space="preserve">
<style type="text/css">
	.st0{fill:#737373;}
</style>
<g>
	<g>
		<g>
			<path class="st0" d="M456.3,134.5L258.8,39.1c-1.7-0.8-3.8-0.8-5.6,0L55.7,134.5c-2.2,1.1-3.6,3.3-3.6,5.7v231.6
				c0,2.4,1.5,4.7,3.6,5.7l197.5,95.4c0.8,0.4,1.8,0.6,2.8,0.6c1,0,1.9-0.2,2.8-0.6l197.5-95.4c2.2-1.1,3.6-3.3,3.6-5.7V140.2
				C459.9,137.8,458.4,135.5,456.3,134.5z M256,52l182.9,88.2l-53,25.6c-0.4-0.2-0.7-0.5-1.1-0.7L203.2,77.5L256,52z M188.8,84.6
				l182.7,88.1L334,190.8l-182.5-88.1L188.8,84.6z M375.7,184.9v66.8l-35,16.9v-66.8L375.7,184.9z M447.1,367.8L262.4,457V239.6
				l44.1-21.2c3.2-1.6,4.5-5.3,2.9-8.5c-1.6-3.2-5.3-4.5-8.5-2.9L256,228.7l-17.7-8.5c-3.2-1.6-7-0.2-8.5,2.9
				c-1.5,3.2-0.2,7,2.9,8.5l16.9,8.1v217.4L64.9,367.8V150.4l140.7,68c0.8,0.5,1.8,0.6,2.8,0.6c2.4,0,4.6-1.3,5.7-3.6
				c1.6-3.2,0.2-7-2.9-8.5l-138-66.6l63.4-30.6L327.8,202c0,0,0,0.1,0.1,0.1v76.5c0,2.2,1.1,4.2,3,5.3c1,0.6,2.2,1,3.4,1
				c1,0,1.9-0.2,2.8-0.6l47.7-23.1c2.2-1.1,3.6-3.3,3.6-5.7v-76.9l58.7-28.4L447.1,367.8L447.1,367.8z"/>
		</g>
	</g>
	<g>
		<g>
			<path class="st0" d="M101.5,353.1l-32.3-15.7c-3.5-1.7-7.8-0.2-9.5,3.3c-1.7,3.5-0.2,7.8,3.3,9.5l32.3,15.7c1,0.5,2.1,0.7,3,0.7
				c2.7,0,5.2-1.5,6.4-4C106.5,359,105,354.8,101.5,353.1z"/>
		</g>
	</g>
	<g>
		<g>
			<path class="st0" d="M131.2,333.7l-62-30c-3.5-1.7-7.8-0.2-9.5,3.3c-1.7,3.5-0.2,7.8,3.3,9.5l62,30c1,0.5,2.1,0.7,3,0.7
				c2.7,0,5.2-1.5,6.4-4C136.2,339.6,134.8,335.4,131.2,333.7z"/>
		</g>
	</g>
</g>
</svg>
